<svg
          width="70"
          height="24"
          viewBox="0 0 70 24"
          fill="none"
          xmlns="http://www.w3.org/2000/svg"
        >
          <rect width="70" height="24" rx="12" />
          <path
            d="M65.1137 14.568C65.0967 12.46 62.7847 11.321 59.5547 11.032L63.4307 9.247C63.7537 9.094 63.8387 8.873 63.8387 8.533V6.595C63.8387 6.221 63.6177 6 63.2437 6H50.2897C49.9157 6 49.6947 6.221 49.6947 6.595V7.87C49.6947 8.244 49.9157 8.465 50.2897 8.465H59.9457L55.5257 10.488C55.2367 10.607 55.1007 10.862 55.1007 11.185V12.545C55.1007 12.919 55.3217 13.14 55.7127 13.14C59.2317 13.14 61.8667 13.803 61.8837 14.466C61.9007 14.891 60.8127 15.367 57.2937 15.367C53.6047 15.367 51.6837 14.67 50.5277 14.33C50.1877 14.245 49.8307 14.279 49.7287 14.534L49.1167 15.724C48.9637 16.098 48.9127 16.285 49.2697 16.54C50.0177 17.05 52.7887 18.036 57.5317 18.036C61.6117 18.036 65.1307 17.322 65.1137 14.568Z"
            fill="#D3FED7"
          />
          <path
            d="M43.1137 14.568C43.0967 12.46 40.7847 11.321 37.5547 11.032L41.4307 9.247C41.7537 9.094 41.8387 8.873 41.8387 8.533V6.595C41.8387 6.221 41.6177 6 41.2437 6H28.2897C27.9157 6 27.6947 6.221 27.6947 6.595V7.87C27.6947 8.244 27.9157 8.465 28.2897 8.465H37.9457L33.5257 10.488C33.2367 10.607 33.1007 10.862 33.1007 11.185V12.545C33.1007 12.919 33.3217 13.14 33.7127 13.14C37.2317 13.14 39.8667 13.803 39.8837 14.466C39.9007 14.891 38.8127 15.367 35.2937 15.367C31.6047 15.367 29.6837 14.67 28.5277 14.33C28.1877 14.245 27.8307 14.279 27.7287 14.534L27.1167 15.724C26.9637 16.098 26.9127 16.285 27.2697 16.54C28.0177 17.05 30.7887 18.036 35.5317 18.036C39.6117 18.036 43.1307 17.322 43.1137 14.568Z"
            fill="#D3FED7"
          />
          <path
            d="M21.1137 14.568C21.0967 12.46 18.7847 11.321 15.5547 11.032L19.4307 9.247C19.7537 9.094 19.8387 8.873 19.8387 8.533V6.595C19.8387 6.221 19.6177 6 19.2437 6H6.2897C5.9157 6 5.69471 6.221 5.69471 6.595V7.87C5.69471 8.244 5.9157 8.465 6.2897 8.465H15.9457L11.5257 10.488C11.2367 10.607 11.1007 10.862 11.1007 11.185V12.545C11.1007 12.919 11.3217 13.14 11.7127 13.14C15.2317 13.14 17.8667 13.803 17.8837 14.466C17.9007 14.891 16.8127 15.367 13.2937 15.367C9.60471 15.367 7.68371 14.67 6.52771 14.33C6.18771 14.245 5.8307 14.279 5.7287 14.534L5.1167 15.724C4.9637 16.098 4.9127 16.285 5.2697 16.54C6.0177 17.05 8.7887 18.036 13.5317 18.036C17.6117 18.036 21.1307 17.322 21.1137 14.568Z"
            fill="#D3FED7"
          />
        </svg>